<svg width="940" height="267" viewBox="0 0 940 267" fill="none" xmlns="http://www.w3.org/2000/svg">
<path fill-rule="evenodd" clip-rule="evenodd" d="M110 45C49.225 45 0 94.225 0 155C0 203.675 31.4875 244.788 75.2125 259.363C80.7125 260.325 82.775 257.025 82.775 254.138C82.775 251.525 82.6375 242.863 82.6375 233.65C55 238.738 47.85 226.912 45.65 220.725C44.4125 217.562 39.05 207.8 34.375 205.187C30.525 203.125 25.025 198.037 34.2375 197.9C42.9 197.762 49.0875 205.875 51.15 209.175C61.05 225.812 76.8625 221.138 83.1875 218.25C84.15 211.1 87.0375 206.287 90.2 203.537C65.725 200.787 40.15 191.3 40.15 149.225C40.15 137.262 44.4125 127.362 51.425 119.662C50.325 116.912 46.475 105.637 52.525 90.5125C52.525 90.5125 61.7375 87.625 82.775 101.788C91.575 99.3125 100.925 98.075 110.275 98.075C119.625 98.075 128.975 99.3125 137.775 101.788C158.813 87.4875 168.025 90.5125 168.025 90.5125C174.075 105.637 170.225 116.912 169.125 119.662C176.138 127.362 180.4 137.125 180.4 149.225C180.4 191.437 154.688 200.787 130.213 203.537C134.2 206.975 137.638 213.575 137.638 223.888C137.638 238.6 137.5 250.425 137.5 254.138C137.5 257.025 139.563 260.463 145.063 259.363C188.513 244.788 220 203.537 220 155C220 94.225 170.775 45 110 45Z" fill="white"/>
<path d="M377.409 194.094C364.421 201.577 348.278 205.319 328.981 205.319C307.582 205.319 290.697 199.413 278.327 187.6C266.019 175.725 259.865 159.396 259.865 138.615C259.865 117.71 266.607 100.671 280.09 87.4971C293.573 74.3232 311.509 67.7363 333.898 67.7363C348 67.7363 360.432 69.6846 371.193 73.5811V101.691C360.926 95.7539 348.371 92.7852 333.527 92.7852C321.096 92.7852 310.952 96.8363 303.098 104.938C295.305 112.979 291.408 123.741 291.408 137.224C291.408 150.892 294.903 161.468 301.892 168.952C308.942 176.436 318.436 180.178 330.373 180.178C337.548 180.178 343.238 179.157 347.443 177.116V151.14H320.817V127.204H377.409V194.094ZM415.261 92.9707C410.313 92.9707 406.262 91.5173 403.107 88.6104C399.953 85.6416 398.376 82.0234 398.376 77.7559C398.376 73.3646 399.953 69.7773 403.107 66.9941C406.262 64.2109 410.313 62.8193 415.261 62.8193C420.271 62.8193 424.322 64.2109 427.414 66.9941C430.568 69.7773 432.146 73.3646 432.146 77.7559C432.146 82.209 430.568 85.8581 427.414 88.7031C424.322 91.5482 420.271 92.9707 415.261 92.9707ZM429.733 203H400.417V108H429.733V203ZM511.838 201.887C507.508 204.175 500.983 205.319 492.263 205.319C471.605 205.319 461.276 194.589 461.276 173.127V129.616H445.876V108H461.276V87.4971L490.5 79.1475V108H511.838V129.616H490.5V168.024C490.5 177.92 494.427 182.868 502.282 182.868C505.375 182.868 508.56 181.971 511.838 180.178V201.887ZM646.452 203H616.394V148.82H561.286V203H531.32V69.9629H561.286V123.029H616.394V69.9629H646.452V203ZM764.367 203H735.144V188.527H734.68C727.443 199.722 717.764 205.319 705.642 205.319C683.623 205.319 672.614 191.991 672.614 165.334V108H701.838V162.736C701.838 176.158 707.157 182.868 717.795 182.868C723.052 182.868 727.258 181.044 730.412 177.395C733.566 173.684 735.144 168.674 735.144 162.365V108H764.367V203ZM818.825 191.96H818.454V203H789.138V62.3555H818.454V122.287H818.825C826.062 111.216 836.359 105.681 849.719 105.681C861.965 105.681 871.397 109.886 878.015 118.298C884.632 126.709 887.941 138.213 887.941 152.81C887.941 168.643 884.076 181.353 876.345 190.939C868.614 200.526 858.285 205.319 845.358 205.319C833.669 205.319 824.825 200.866 818.825 191.96ZM817.99 151.882V161.623C817.99 167.746 819.753 172.818 823.278 176.838C826.804 180.858 831.319 182.868 836.823 182.868C843.503 182.868 848.667 180.301 852.316 175.168C856.027 169.973 857.883 162.644 857.883 153.181C857.883 145.326 856.182 139.203 852.78 134.812C849.44 130.358 844.647 128.132 838.4 128.132C832.525 128.132 827.639 130.327 823.742 134.719C819.908 139.11 817.99 144.831 817.99 151.882Z" fill="white"/>
<path d="M291.977 256H285.209V243.496C285.209 240.273 284.035 238.662 281.686 238.662C280.482 238.662 279.508 239.113 278.764 240.016C278.019 240.918 277.646 242.064 277.646 243.453V256H270.857V223.43H277.646V237.266H277.732C279.394 234.73 281.65 233.463 284.5 233.463C289.484 233.463 291.977 236.471 291.977 242.486V256ZM310.668 255.742C309.665 256.272 308.154 256.537 306.135 256.537C301.351 256.537 298.959 254.052 298.959 249.082V239.006H295.393V234H298.959V229.252L305.727 227.318V234H310.668V239.006H305.727V247.9C305.727 250.192 306.636 251.338 308.455 251.338C309.171 251.338 309.909 251.13 310.668 250.715V255.742ZM327.812 255.742C326.81 256.272 325.299 256.537 323.279 256.537C318.495 256.537 316.104 254.052 316.104 249.082V239.006H312.537V234H316.104V229.252L322.871 227.318V234H327.812V239.006H322.871V247.9C322.871 250.192 323.781 251.338 325.6 251.338C326.316 251.338 327.053 251.13 327.812 250.715V255.742ZM338.533 253.443H338.447V266.119H331.658V234H338.447V237.309H338.533C340.209 234.745 342.565 233.463 345.602 233.463C348.452 233.463 350.65 234.444 352.197 236.406C353.758 238.354 354.539 241.011 354.539 244.377C354.539 248.044 353.63 250.987 351.811 253.207C350.006 255.427 347.6 256.537 344.592 256.537C341.942 256.537 339.923 255.506 338.533 253.443ZM338.34 244.42V246.182C338.34 247.7 338.741 248.939 339.543 249.898C340.345 250.858 341.398 251.338 342.701 251.338C344.248 251.338 345.444 250.743 346.289 249.555C347.148 248.352 347.578 246.654 347.578 244.463C347.578 240.596 346.074 238.662 343.066 238.662C341.677 238.662 340.538 239.192 339.65 240.252C338.777 241.298 338.34 242.687 338.34 244.42ZM357.504 255.42V249.92C358.621 250.593 359.731 251.094 360.834 251.424C361.951 251.753 363.004 251.918 363.992 251.918C365.195 251.918 366.141 251.753 366.828 251.424C367.53 251.094 367.881 250.593 367.881 249.92C367.881 249.49 367.723 249.132 367.408 248.846C367.093 248.559 366.685 248.309 366.184 248.094C365.697 247.879 365.16 247.686 364.572 247.514C363.985 247.342 363.419 247.148 362.875 246.934C362.001 246.604 361.228 246.253 360.555 245.881C359.896 245.494 359.337 245.05 358.879 244.549C358.435 244.048 358.091 243.467 357.848 242.809C357.618 242.15 357.504 241.369 357.504 240.467C357.504 239.235 357.769 238.175 358.299 237.287C358.843 236.399 359.559 235.676 360.447 235.117C361.35 234.544 362.374 234.129 363.52 233.871C364.68 233.599 365.883 233.463 367.129 233.463C368.103 233.463 369.091 233.542 370.094 233.699C371.096 233.842 372.085 234.057 373.059 234.344V239.586C372.199 239.085 371.275 238.712 370.287 238.469C369.313 238.211 368.354 238.082 367.408 238.082C366.964 238.082 366.542 238.125 366.141 238.211C365.754 238.283 365.41 238.397 365.109 238.555C364.809 238.698 364.572 238.891 364.4 239.135C364.229 239.364 364.143 239.629 364.143 239.93C364.143 240.331 364.271 240.674 364.529 240.961C364.787 241.247 365.124 241.498 365.539 241.713C365.954 241.913 366.413 242.1 366.914 242.271C367.43 242.429 367.938 242.594 368.439 242.766C369.342 243.081 370.158 243.424 370.889 243.797C371.619 244.169 372.242 244.606 372.758 245.107C373.288 245.609 373.689 246.196 373.961 246.869C374.247 247.542 374.391 248.344 374.391 249.275C374.391 250.579 374.104 251.696 373.531 252.627C372.973 253.544 372.221 254.296 371.275 254.883C370.344 255.456 369.263 255.871 368.031 256.129C366.814 256.401 365.546 256.537 364.229 256.537C361.808 256.537 359.566 256.165 357.504 255.42ZM381.352 240.811C380.234 240.811 379.303 240.474 378.559 239.801C377.814 239.113 377.441 238.268 377.441 237.266C377.441 236.234 377.821 235.389 378.58 234.73C379.354 234.072 380.313 233.742 381.459 233.742C382.619 233.742 383.564 234.079 384.295 234.752C385.04 235.411 385.412 236.249 385.412 237.266C385.412 238.311 385.033 239.163 384.273 239.822C383.529 240.481 382.555 240.811 381.352 240.811ZM381.352 256.537C380.234 256.537 379.303 256.193 378.559 255.506C377.814 254.818 377.441 253.973 377.441 252.971C377.441 251.939 377.821 251.094 378.58 250.436C379.354 249.777 380.313 249.447 381.459 249.447C382.619 249.447 383.564 249.784 384.295 250.457C385.04 251.116 385.412 251.954 385.412 252.971C385.412 254.016 385.033 254.876 384.273 255.549C383.529 256.208 382.555 256.537 381.352 256.537ZM407.434 225.191L392.416 261.113H386.357L401.311 225.191H407.434ZM426.941 225.191L411.924 261.113H405.865L420.818 225.191H426.941ZM450.854 253.486C450.854 257.568 449.672 260.727 447.309 262.961C444.945 265.21 441.522 266.334 437.039 266.334C434.074 266.334 431.725 265.911 429.992 265.066V259.352C432.255 260.669 434.54 261.328 436.846 261.328C439.137 261.328 440.913 260.719 442.174 259.502C443.434 258.299 444.064 256.659 444.064 254.582V252.842H443.979C442.432 255.305 440.147 256.537 437.125 256.537C434.318 256.537 432.09 255.549 430.443 253.572C428.796 251.596 427.973 248.946 427.973 245.623C427.973 241.899 428.889 238.941 430.723 236.75C432.556 234.559 434.969 233.463 437.963 233.463C440.641 233.463 442.646 234.494 443.979 236.557H444.064V234H450.854V253.486ZM444.15 245.43V243.689C444.15 242.3 443.735 241.118 442.904 240.145C442.088 239.156 441.021 238.662 439.703 238.662C438.199 238.662 437.018 239.249 436.158 240.424C435.299 241.598 434.869 243.253 434.869 245.387C434.869 247.22 435.277 248.674 436.094 249.748C436.91 250.808 438.027 251.338 439.445 251.338C440.849 251.338 441.98 250.801 442.84 249.727C443.714 248.638 444.15 247.206 444.15 245.43ZM459.963 230.52C458.817 230.52 457.879 230.183 457.148 229.51C456.418 228.822 456.053 227.984 456.053 226.996C456.053 225.979 456.418 225.148 457.148 224.504C457.879 223.859 458.817 223.537 459.963 223.537C461.123 223.537 462.061 223.859 462.777 224.504C463.508 225.148 463.873 225.979 463.873 226.996C463.873 228.027 463.508 228.872 462.777 229.531C462.061 230.19 461.123 230.52 459.963 230.52ZM463.314 256H456.525V234H463.314V256ZM482.328 255.742C481.326 256.272 479.814 256.537 477.795 256.537C473.011 256.537 470.619 254.052 470.619 249.082V239.006H467.053V234H470.619V229.252L477.387 227.318V234H482.328V239.006H477.387V247.9C477.387 250.192 478.296 251.338 480.115 251.338C480.831 251.338 481.569 251.13 482.328 250.715V255.742ZM507.293 256H500.525V243.496C500.525 240.273 499.351 238.662 497.002 238.662C495.799 238.662 494.825 239.113 494.08 240.016C493.335 240.918 492.963 242.064 492.963 243.453V256H486.174V223.43H492.963V237.266H493.049C494.71 234.73 496.966 233.463 499.816 233.463C504.801 233.463 507.293 236.471 507.293 242.486V256ZM533.59 256H526.822V252.648H526.715C525.039 255.241 522.798 256.537 519.99 256.537C514.891 256.537 512.342 253.451 512.342 247.277V234H519.109V246.676C519.109 249.784 520.341 251.338 522.805 251.338C524.022 251.338 524.996 250.915 525.727 250.07C526.457 249.211 526.822 248.051 526.822 246.59V234H533.59V256ZM546.201 253.443H546.115V256H539.326V223.43H546.115V237.309H546.201C547.877 234.745 550.262 233.463 553.355 233.463C556.191 233.463 558.376 234.437 559.908 236.385C561.441 238.333 562.207 240.997 562.207 244.377C562.207 248.044 561.312 250.987 559.521 253.207C557.731 255.427 555.339 256.537 552.346 256.537C549.639 256.537 547.59 255.506 546.201 253.443ZM546.008 244.162V246.418C546.008 247.836 546.416 249.01 547.232 249.941C548.049 250.872 549.094 251.338 550.369 251.338C551.916 251.338 553.112 250.743 553.957 249.555C554.816 248.352 555.246 246.654 555.246 244.463C555.246 242.644 554.852 241.226 554.064 240.209C553.291 239.178 552.181 238.662 550.734 238.662C549.374 238.662 548.242 239.171 547.34 240.188C546.452 241.204 546.008 242.529 546.008 244.162ZM569.641 256.537C568.523 256.537 567.592 256.193 566.848 255.506C566.103 254.818 565.73 253.973 565.73 252.971C565.73 251.939 566.11 251.094 566.869 250.436C567.643 249.777 568.602 249.447 569.748 249.447C570.908 249.447 571.854 249.784 572.584 250.457C573.329 251.116 573.701 251.954 573.701 252.971C573.701 254.016 573.322 254.876 572.562 255.549C571.818 256.208 570.844 256.537 569.641 256.537ZM595.229 255.205C593.696 256.093 591.483 256.537 588.59 256.537C585.21 256.537 582.474 255.513 580.383 253.465C578.292 251.417 577.246 248.774 577.246 245.537C577.246 241.799 578.363 238.855 580.598 236.707C582.846 234.544 585.847 233.463 589.6 233.463C592.192 233.463 594.068 233.807 595.229 234.494V240.252C593.811 239.192 592.228 238.662 590.48 238.662C588.533 238.662 586.986 239.235 585.84 240.381C584.708 241.512 584.143 243.081 584.143 245.086C584.143 247.034 584.687 248.566 585.775 249.684C586.864 250.786 588.361 251.338 590.266 251.338C591.956 251.338 593.61 250.808 595.229 249.748V255.205ZM610.182 256.537C606.515 256.537 603.629 255.513 601.523 253.465C599.432 251.402 598.387 248.609 598.387 245.086C598.387 241.448 599.475 238.605 601.652 236.557C603.829 234.494 606.773 233.463 610.482 233.463C614.135 233.463 616.999 234.494 619.076 236.557C621.153 238.605 622.191 241.319 622.191 244.699C622.191 248.352 621.117 251.238 618.969 253.357C616.835 255.477 613.906 256.537 610.182 256.537ZM610.354 238.662C608.749 238.662 607.503 239.214 606.615 240.316C605.727 241.419 605.283 242.98 605.283 245C605.283 249.225 606.988 251.338 610.396 251.338C613.648 251.338 615.273 249.168 615.273 244.828C615.273 240.717 613.633 238.662 610.354 238.662ZM661.529 256H654.762V243.453C654.762 240.259 653.587 238.662 651.238 238.662C650.121 238.662 649.212 239.142 648.51 240.102C647.808 241.061 647.457 242.257 647.457 243.689V256H640.668V243.324C640.668 240.216 639.515 238.662 637.209 238.662C636.049 238.662 635.118 239.12 634.416 240.037C633.729 240.954 633.385 242.2 633.385 243.775V256H626.596V234H633.385V237.438H633.471C634.173 236.263 635.154 235.311 636.414 234.58C637.689 233.835 639.078 233.463 640.582 233.463C643.69 233.463 645.817 234.831 646.963 237.566C648.639 234.831 651.102 233.463 654.354 233.463C659.137 233.463 661.529 236.413 661.529 242.314V256ZM684.066 225.191L669.049 261.113H662.99L677.943 225.191H684.066ZM714.166 256H706.604L704.412 249.146H693.455L691.285 256H683.766L694.98 225.191H703.209L714.166 256ZM702.822 243.818L699.514 233.463C699.27 232.689 699.098 231.766 698.998 230.691H698.826C698.755 231.594 698.576 232.489 698.289 233.377L694.938 243.818H702.822ZM734.77 256H715.025V253.186L726.068 239.006H716.121V234H734.684V237.352L724.221 250.994H734.77V256ZM741.881 230.52C740.735 230.52 739.797 230.183 739.066 229.51C738.336 228.822 737.971 227.984 737.971 226.996C737.971 225.979 738.336 225.148 739.066 224.504C739.797 223.859 740.735 223.537 741.881 223.537C743.041 223.537 743.979 223.859 744.695 224.504C745.426 225.148 745.791 225.979 745.791 226.996C745.791 228.027 745.426 228.872 744.695 229.531C743.979 230.19 743.041 230.52 741.881 230.52ZM745.232 256H738.443V234H745.232V256ZM768.371 256H748.627V253.186L759.67 239.006H749.723V234H768.285V237.352L757.822 250.994H768.371V256ZM778.92 253.443H778.834V256H772.045V223.43H778.834V237.309H778.92C780.596 234.745 782.98 233.463 786.074 233.463C788.91 233.463 791.094 234.437 792.627 236.385C794.16 238.333 794.926 240.997 794.926 244.377C794.926 248.044 794.031 250.987 792.24 253.207C790.45 255.427 788.058 256.537 785.064 256.537C782.357 256.537 780.309 255.506 778.92 253.443ZM778.727 244.162V246.418C778.727 247.836 779.135 249.01 779.951 249.941C780.768 250.872 781.813 251.338 783.088 251.338C784.635 251.338 785.831 250.743 786.676 249.555C787.535 248.352 787.965 246.654 787.965 244.463C787.965 242.644 787.571 241.226 786.783 240.209C786.01 239.178 784.9 238.662 783.453 238.662C782.092 238.662 780.961 239.171 780.059 240.188C779.171 241.204 778.727 242.529 778.727 244.162ZM819.096 246.934H804.744C804.973 250.128 806.986 251.725 810.781 251.725C813.202 251.725 815.329 251.152 817.162 250.006V254.904C815.128 255.993 812.486 256.537 809.234 256.537C805.682 256.537 802.925 255.556 800.963 253.594C799.001 251.617 798.02 248.867 798.02 245.344C798.02 241.691 799.079 238.798 801.199 236.664C803.319 234.53 805.926 233.463 809.02 233.463C812.228 233.463 814.706 234.415 816.453 236.32C818.215 238.225 819.096 240.811 819.096 244.076V246.934ZM812.801 242.766C812.801 239.615 811.526 238.039 808.977 238.039C807.888 238.039 806.943 238.49 806.141 239.393C805.353 240.295 804.873 241.419 804.701 242.766H812.801ZM845.178 256H837.035L830.01 245.086H829.924V256H823.135V223.43H829.924V244.162H830.01L836.562 234H844.619L836.734 244.334L845.178 256ZM868.252 239.113C868.252 241.849 867.951 244.298 867.35 246.461C866.748 248.609 865.867 250.428 864.707 251.918C863.561 253.408 862.158 254.553 860.496 255.355C858.835 256.143 856.951 256.537 854.846 256.537C852.325 256.537 850.155 256.136 848.336 255.334V249.748C849.954 250.808 851.902 251.338 854.18 251.338C856.514 251.338 858.34 250.543 859.658 248.953C860.976 247.363 861.642 245.064 861.656 242.057L861.527 242.014C860.167 244.033 858.097 245.043 855.318 245.043C854.058 245.043 852.891 244.807 851.816 244.334C850.757 243.861 849.833 243.21 849.045 242.379C848.271 241.534 847.663 240.531 847.219 239.371C846.789 238.211 846.574 236.936 846.574 235.547C846.574 233.928 846.839 232.453 847.369 231.121C847.899 229.789 848.637 228.643 849.582 227.684C850.542 226.724 851.688 225.986 853.02 225.471C854.352 224.941 855.827 224.676 857.445 224.676C859.121 224.676 860.625 225.005 861.957 225.664C863.289 226.309 864.421 227.247 865.352 228.479C866.297 229.71 867.013 231.221 867.5 233.012C868.001 234.802 868.252 236.836 868.252 239.113ZM861.398 235.504C861.398 234.716 861.298 233.979 861.098 233.291C860.897 232.589 860.618 231.988 860.26 231.486C859.902 230.985 859.465 230.591 858.949 230.305C858.434 230.004 857.868 229.854 857.252 229.854C856.665 229.854 856.12 229.982 855.619 230.24C855.132 230.498 854.71 230.856 854.352 231.314C853.993 231.758 853.714 232.296 853.514 232.926C853.313 233.556 853.213 234.236 853.213 234.967C853.213 235.769 853.313 236.485 853.514 237.115C853.714 237.731 853.993 238.254 854.352 238.684C854.724 239.113 855.168 239.443 855.684 239.672C856.199 239.887 856.772 239.994 857.402 239.994C858.004 239.994 858.548 239.88 859.035 239.65C859.522 239.407 859.938 239.085 860.281 238.684C860.639 238.283 860.911 237.81 861.098 237.266C861.298 236.721 861.398 236.134 861.398 235.504ZM871.926 247.707C871.926 246.848 872.048 246.024 872.291 245.236C872.549 244.434 872.928 243.697 873.43 243.023C873.931 242.336 874.554 241.727 875.299 241.197C876.058 240.653 876.946 240.209 877.963 239.865C876.402 239.092 875.191 238.104 874.332 236.9C873.473 235.683 873.043 234.337 873.043 232.861C873.043 231.687 873.286 230.598 873.773 229.596C874.275 228.593 874.962 227.727 875.836 226.996C876.71 226.266 877.748 225.7 878.951 225.299C880.169 224.883 881.493 224.676 882.926 224.676C884.387 224.676 885.726 224.883 886.943 225.299C888.161 225.7 889.206 226.266 890.08 226.996C890.968 227.712 891.656 228.564 892.143 229.553C892.63 230.541 892.873 231.615 892.873 232.775C892.873 234.236 892.415 235.568 891.498 236.771C890.581 237.96 889.314 238.941 887.695 239.715C888.698 240.059 889.579 240.503 890.338 241.047C891.097 241.577 891.734 242.186 892.25 242.873C892.766 243.561 893.152 244.312 893.41 245.129C893.668 245.931 893.797 246.769 893.797 247.643C893.797 248.96 893.532 250.163 893.002 251.252C892.472 252.326 891.72 253.257 890.746 254.045C889.786 254.818 888.633 255.42 887.287 255.85C885.955 256.279 884.48 256.494 882.861 256.494C881.271 256.494 879.803 256.286 878.457 255.871C877.125 255.441 875.972 254.84 874.998 254.066C874.038 253.293 873.286 252.369 872.742 251.295C872.198 250.206 871.926 249.01 871.926 247.707ZM878.35 247.127C878.35 247.829 878.457 248.459 878.672 249.018C878.887 249.576 879.195 250.049 879.596 250.436C879.997 250.822 880.469 251.123 881.014 251.338C881.572 251.538 882.195 251.639 882.883 251.639C883.542 251.639 884.143 251.531 884.688 251.316C885.246 251.102 885.726 250.801 886.127 250.414C886.528 250.027 886.843 249.555 887.072 248.996C887.301 248.438 887.416 247.814 887.416 247.127C887.416 246.511 887.309 245.924 887.094 245.365C886.879 244.807 886.571 244.327 886.17 243.926C885.769 243.51 885.289 243.181 884.73 242.938C884.186 242.694 883.57 242.572 882.883 242.572C882.238 242.572 881.637 242.687 881.078 242.916C880.52 243.131 880.04 243.446 879.639 243.861C879.238 244.262 878.923 244.742 878.693 245.301C878.464 245.859 878.35 246.468 878.35 247.127ZM879.295 233.484C879.295 234.029 879.388 234.544 879.574 235.031C879.775 235.504 880.04 235.919 880.369 236.277C880.699 236.621 881.085 236.893 881.529 237.094C881.988 237.294 882.467 237.395 882.969 237.395C883.484 237.395 883.964 237.294 884.408 237.094C884.852 236.893 885.239 236.614 885.568 236.256C885.912 235.898 886.177 235.482 886.363 235.01C886.564 234.537 886.664 234.029 886.664 233.484C886.664 232.926 886.571 232.41 886.385 231.938C886.199 231.451 885.934 231.035 885.59 230.691C885.26 230.333 884.867 230.054 884.408 229.854C883.964 229.653 883.484 229.553 882.969 229.553C882.424 229.553 881.923 229.66 881.465 229.875C881.021 230.076 880.634 230.355 880.305 230.713C879.99 231.057 879.739 231.472 879.553 231.959C879.381 232.432 879.295 232.94 879.295 233.484Z" fill="white"/>
</svg>
