<svg width="1460" height="333" viewBox="0 0 1460 333" fill="none" xmlns="http://www.w3.org/2000/svg">
<path d="M377.145 299H366.378V279.107C366.378 273.98 364.509 271.417 360.772 271.417C358.858 271.417 357.309 272.135 356.124 273.57C354.939 275.006 354.347 276.829 354.347 279.039V299H343.546V247.184H354.347V269.195H354.483C357.127 265.162 360.715 263.146 365.25 263.146C373.18 263.146 377.145 267.931 377.145 277.501V299ZM406.881 298.59C405.286 299.433 402.882 299.854 399.669 299.854C392.058 299.854 388.253 295.901 388.253 287.994V271.964H382.579V264H388.253V256.446L399.02 253.37V264H406.881V271.964H399.02V286.114C399.02 289.76 400.466 291.583 403.36 291.583C404.5 291.583 405.673 291.253 406.881 290.592V298.59ZM434.156 298.59C432.561 299.433 430.157 299.854 426.944 299.854C419.334 299.854 415.528 295.901 415.528 287.994V271.964H409.854V264H415.528V256.446L426.295 253.37V264H434.156V271.964H426.295V286.114C426.295 289.76 427.742 291.583 430.636 291.583C431.775 291.583 432.949 291.253 434.156 290.592V298.59ZM451.212 294.933H451.075V315.099H440.274V264H451.075V269.264H451.212C453.878 265.185 457.626 263.146 462.457 263.146C466.992 263.146 470.489 264.706 472.95 267.828C475.434 270.927 476.676 275.154 476.676 280.509C476.676 286.342 475.229 291.025 472.335 294.557C469.464 298.089 465.636 299.854 460.851 299.854C456.635 299.854 453.422 298.214 451.212 294.933ZM450.904 280.577V283.38C450.904 285.795 451.542 287.766 452.818 289.293C454.094 290.82 455.769 291.583 457.843 291.583C460.304 291.583 462.206 290.637 463.551 288.746C464.918 286.832 465.602 284.132 465.602 280.646C465.602 274.493 463.209 271.417 458.424 271.417C456.214 271.417 454.402 272.26 452.989 273.946C451.599 275.61 450.904 277.82 450.904 280.577ZM481.393 298.077V289.327C483.17 290.398 484.936 291.196 486.69 291.72C488.468 292.244 490.143 292.506 491.715 292.506C493.629 292.506 495.133 292.244 496.227 291.72C497.343 291.196 497.901 290.398 497.901 289.327C497.901 288.644 497.651 288.074 497.149 287.618C496.648 287.162 495.999 286.764 495.201 286.422C494.426 286.08 493.572 285.772 492.638 285.499C491.703 285.226 490.803 284.918 489.938 284.576C488.548 284.052 487.317 283.494 486.246 282.901C485.198 282.286 484.309 281.58 483.58 280.782C482.874 279.985 482.327 279.062 481.939 278.014C481.575 276.965 481.393 275.724 481.393 274.288C481.393 272.328 481.814 270.642 482.657 269.229C483.523 267.817 484.662 266.666 486.075 265.777C487.511 264.866 489.14 264.205 490.963 263.795C492.809 263.362 494.723 263.146 496.705 263.146C498.255 263.146 499.827 263.271 501.422 263.521C503.017 263.749 504.589 264.091 506.139 264.547V272.887C504.771 272.089 503.302 271.497 501.729 271.109C500.18 270.699 498.653 270.494 497.149 270.494C496.443 270.494 495.771 270.562 495.133 270.699C494.518 270.813 493.971 270.995 493.492 271.246C493.014 271.474 492.638 271.782 492.364 272.169C492.091 272.534 491.954 272.955 491.954 273.434C491.954 274.072 492.159 274.618 492.569 275.074C492.979 275.53 493.515 275.929 494.176 276.271C494.837 276.59 495.566 276.886 496.363 277.159C497.184 277.41 497.993 277.672 498.79 277.945C500.226 278.447 501.524 278.993 502.687 279.586C503.849 280.178 504.84 280.873 505.66 281.671C506.503 282.468 507.141 283.403 507.574 284.474C508.03 285.545 508.258 286.821 508.258 288.302C508.258 290.375 507.802 292.153 506.891 293.634C506.002 295.092 504.806 296.288 503.302 297.223C501.821 298.134 500.1 298.795 498.141 299.205C496.204 299.638 494.187 299.854 492.091 299.854C488.24 299.854 484.674 299.262 481.393 298.077ZM519.332 274.835C517.555 274.835 516.074 274.299 514.889 273.229C513.704 272.135 513.111 270.79 513.111 269.195C513.111 267.555 513.715 266.21 514.923 265.162C516.153 264.114 517.68 263.59 519.503 263.59C521.349 263.59 522.853 264.125 524.015 265.196C525.2 266.244 525.792 267.577 525.792 269.195C525.792 270.859 525.188 272.215 523.98 273.263C522.796 274.311 521.246 274.835 519.332 274.835ZM519.332 299.854C517.555 299.854 516.074 299.308 514.889 298.214C513.704 297.12 513.111 295.776 513.111 294.181C513.111 292.54 513.715 291.196 514.923 290.147C516.153 289.099 517.68 288.575 519.503 288.575C521.349 288.575 522.853 289.111 524.015 290.182C525.2 291.23 525.792 292.563 525.792 294.181C525.792 295.844 525.188 297.211 523.98 298.282C522.796 299.33 521.246 299.854 519.332 299.854ZM560.826 249.986L536.935 307.135H527.296L551.085 249.986H560.826ZM591.861 249.986L567.97 307.135H558.331L582.12 249.986H591.861ZM629.903 295.001C629.903 301.495 628.023 306.52 624.264 310.074C620.504 313.652 615.058 315.44 607.926 315.44C603.209 315.44 599.472 314.768 596.715 313.424V304.332C600.315 306.428 603.95 307.477 607.618 307.477C611.264 307.477 614.09 306.508 616.095 304.571C618.1 302.657 619.103 300.048 619.103 296.744V293.976H618.966C616.505 297.895 612.87 299.854 608.062 299.854C603.596 299.854 600.053 298.282 597.433 295.138C594.812 291.993 593.502 287.778 593.502 282.491C593.502 276.567 594.96 271.861 597.877 268.375C600.794 264.889 604.633 263.146 609.396 263.146C613.657 263.146 616.847 264.786 618.966 268.067H619.103V264H629.903V295.001ZM619.239 282.184V279.415C619.239 277.205 618.578 275.325 617.257 273.775C615.958 272.203 614.26 271.417 612.164 271.417C609.771 271.417 607.892 272.351 606.524 274.22C605.157 276.088 604.474 278.72 604.474 282.115C604.474 285.032 605.123 287.345 606.422 289.054C607.721 290.74 609.498 291.583 611.754 291.583C613.987 291.583 615.787 290.729 617.154 289.02C618.544 287.288 619.239 285.009 619.239 282.184ZM644.396 258.463C642.573 258.463 641.08 257.927 639.918 256.856C638.756 255.763 638.175 254.43 638.175 252.857C638.175 251.24 638.756 249.918 639.918 248.893C641.08 247.867 642.573 247.354 644.396 247.354C646.241 247.354 647.734 247.867 648.873 248.893C650.035 249.918 650.616 251.24 650.616 252.857C650.616 254.498 650.035 255.842 648.873 256.891C647.734 257.939 646.241 258.463 644.396 258.463ZM649.728 299H638.927V264H649.728V299ZM679.977 298.59C678.382 299.433 675.978 299.854 672.765 299.854C665.154 299.854 661.349 295.901 661.349 287.994V271.964H655.675V264H661.349V256.446L672.115 253.37V264H679.977V271.964H672.115V286.114C672.115 289.76 673.562 291.583 676.456 291.583C677.595 291.583 678.769 291.253 679.977 290.592V298.59ZM719.693 299H708.927V279.107C708.927 273.98 707.058 271.417 703.321 271.417C701.407 271.417 699.858 272.135 698.673 273.57C697.488 275.006 696.896 276.829 696.896 279.039V299H686.095V247.184H696.896V269.195H697.032C699.675 265.162 703.264 263.146 707.799 263.146C715.729 263.146 719.693 267.931 719.693 277.501V299ZM761.529 299H750.763V293.668H750.592C747.926 297.792 744.36 299.854 739.894 299.854C731.782 299.854 727.726 294.944 727.726 285.123V264H738.492V284.166C738.492 289.111 740.452 291.583 744.371 291.583C746.308 291.583 747.857 290.911 749.02 289.566C750.182 288.199 750.763 286.354 750.763 284.029V264H761.529V299ZM781.593 294.933H781.456V299H770.655V247.184H781.456V269.264H781.593C784.259 265.185 788.053 263.146 792.975 263.146C797.486 263.146 800.961 264.695 803.399 267.794C805.838 270.893 807.057 275.131 807.057 280.509C807.057 286.342 805.632 291.025 802.784 294.557C799.936 298.089 796.131 299.854 791.368 299.854C787.062 299.854 783.803 298.214 781.593 294.933ZM781.285 280.167V283.756C781.285 286.012 781.935 287.88 783.233 289.361C784.532 290.842 786.196 291.583 788.224 291.583C790.685 291.583 792.587 290.637 793.932 288.746C795.299 286.832 795.982 284.132 795.982 280.646C795.982 277.752 795.356 275.496 794.103 273.878C792.872 272.237 791.106 271.417 788.805 271.417C786.64 271.417 784.84 272.226 783.404 273.844C781.992 275.462 781.285 277.569 781.285 280.167ZM818.883 299.854C817.105 299.854 815.624 299.308 814.439 298.214C813.255 297.12 812.662 295.776 812.662 294.181C812.662 292.54 813.266 291.196 814.474 290.147C815.704 289.099 817.231 288.575 819.054 288.575C820.899 288.575 822.403 289.111 823.565 290.182C824.75 291.23 825.343 292.563 825.343 294.181C825.343 295.844 824.739 297.211 823.531 298.282C822.346 299.33 820.797 299.854 818.883 299.854ZM859.591 297.735C857.153 299.148 853.632 299.854 849.029 299.854C843.652 299.854 839.299 298.225 835.973 294.967C832.646 291.708 830.982 287.504 830.982 282.354C830.982 276.407 832.76 271.725 836.314 268.307C839.892 264.866 844.666 263.146 850.636 263.146C854.76 263.146 857.745 263.692 859.591 264.786V273.946C857.335 272.26 854.817 271.417 852.037 271.417C848.938 271.417 846.477 272.328 844.654 274.151C842.854 275.951 841.954 278.447 841.954 281.637C841.954 284.736 842.82 287.174 844.552 288.951C846.284 290.706 848.665 291.583 851.695 291.583C854.384 291.583 857.016 290.74 859.591 289.054V297.735ZM883.38 299.854C877.547 299.854 872.955 298.225 869.605 294.967C866.279 291.686 864.615 287.242 864.615 281.637C864.615 275.849 866.347 271.326 869.811 268.067C873.274 264.786 877.957 263.146 883.858 263.146C889.669 263.146 894.226 264.786 897.53 268.067C900.834 271.326 902.486 275.644 902.486 281.021C902.486 286.832 900.777 291.424 897.359 294.796C893.964 298.168 889.304 299.854 883.38 299.854ZM883.653 271.417C881.101 271.417 879.119 272.294 877.706 274.049C876.293 275.803 875.587 278.287 875.587 281.5C875.587 288.222 878.299 291.583 883.722 291.583C888.894 291.583 891.48 288.131 891.48 281.227C891.48 274.687 888.871 271.417 883.653 271.417ZM965.069 299H954.303V279.039C954.303 273.958 952.434 271.417 948.697 271.417C946.92 271.417 945.473 272.18 944.356 273.707C943.24 275.234 942.682 277.136 942.682 279.415V299H931.881V278.834C931.881 273.889 930.047 271.417 926.378 271.417C924.532 271.417 923.051 272.146 921.935 273.604C920.841 275.063 920.294 277.045 920.294 279.552V299H909.493V264H920.294V269.469H920.431C921.547 267.6 923.108 266.085 925.113 264.923C927.141 263.738 929.352 263.146 931.744 263.146C936.689 263.146 940.073 265.322 941.896 269.674C944.562 265.322 948.481 263.146 953.653 263.146C961.264 263.146 965.069 267.84 965.069 277.228V299ZM1000.92 249.986L977.032 307.135H967.394L991.183 249.986H1000.92ZM1048.81 299H1036.78L1033.29 288.097H1015.86L1012.41 299H1000.45L1018.29 249.986H1031.38L1048.81 299ZM1030.76 279.62L1025.5 263.146C1025.11 261.915 1024.84 260.445 1024.68 258.736H1024.41C1024.29 260.172 1024.01 261.596 1023.55 263.009L1018.22 279.62H1030.76ZM1081.59 299H1050.18V294.522L1067.75 271.964H1051.92V264H1081.45V269.332L1064.81 291.036H1081.59V299ZM1092.9 258.463C1091.08 258.463 1089.59 257.927 1088.42 256.856C1087.26 255.763 1086.68 254.43 1086.68 252.857C1086.68 251.24 1087.26 249.918 1088.42 248.893C1089.59 247.867 1091.08 247.354 1092.9 247.354C1094.75 247.354 1096.24 247.867 1097.38 248.893C1098.54 249.918 1099.12 251.24 1099.12 252.857C1099.12 254.498 1098.54 255.842 1097.38 256.891C1096.24 257.939 1094.75 258.463 1092.9 258.463ZM1098.23 299H1087.43V264H1098.23V299ZM1135.04 299H1103.63V294.522L1121.2 271.964H1105.38V264H1134.91V269.332L1118.26 291.036H1135.04V299ZM1151.83 294.933H1151.69V299H1140.89V247.184H1151.69V269.264H1151.83C1154.49 265.185 1158.29 263.146 1163.21 263.146C1167.72 263.146 1171.2 264.695 1173.63 267.794C1176.07 270.893 1177.29 275.131 1177.29 280.509C1177.29 286.342 1175.87 291.025 1173.02 294.557C1170.17 298.089 1166.36 299.854 1161.6 299.854C1157.3 299.854 1154.04 298.214 1151.83 294.933ZM1151.52 280.167V283.756C1151.52 286.012 1152.17 287.88 1153.47 289.361C1154.77 290.842 1156.43 291.583 1158.46 291.583C1160.92 291.583 1162.82 290.637 1164.17 288.746C1165.53 286.832 1166.22 284.132 1166.22 280.646C1166.22 277.752 1165.59 275.496 1164.34 273.878C1163.11 272.237 1161.34 271.417 1159.04 271.417C1156.87 271.417 1155.07 272.226 1153.64 273.844C1152.23 275.462 1151.52 277.569 1151.52 280.167ZM1215.74 284.576H1192.91C1193.28 289.658 1196.48 292.198 1202.52 292.198C1206.37 292.198 1209.75 291.287 1212.67 289.464V297.257C1209.43 298.989 1205.23 299.854 1200.05 299.854C1194.4 299.854 1190.02 298.294 1186.9 295.172C1183.77 292.027 1182.21 287.652 1182.21 282.047C1182.21 276.236 1183.9 271.633 1187.27 268.238C1190.64 264.843 1194.79 263.146 1199.71 263.146C1204.82 263.146 1208.76 264.661 1211.54 267.691C1214.34 270.722 1215.74 274.835 1215.74 280.03V284.576ZM1205.73 277.945C1205.73 272.932 1203.7 270.426 1199.64 270.426C1197.91 270.426 1196.41 271.144 1195.13 272.579C1193.88 274.015 1193.12 275.803 1192.84 277.945H1205.73ZM1257.24 299H1244.28L1233.11 281.637H1232.97V299H1222.17V247.184H1232.97V280.167H1233.11L1243.53 264H1256.35L1243.8 280.44L1257.24 299ZM1293.95 272.135C1293.95 276.487 1293.47 280.383 1292.51 283.824C1291.55 287.242 1290.15 290.136 1288.31 292.506C1286.48 294.876 1284.25 296.699 1281.61 297.975C1278.96 299.228 1275.97 299.854 1272.62 299.854C1268.61 299.854 1265.16 299.216 1262.26 297.94V289.054C1264.84 290.74 1267.94 291.583 1271.56 291.583C1275.27 291.583 1278.18 290.318 1280.27 287.789C1282.37 285.26 1283.43 281.603 1283.45 276.817L1283.25 276.749C1281.08 279.962 1277.79 281.568 1273.37 281.568C1271.36 281.568 1269.51 281.192 1267.8 280.44C1266.11 279.688 1264.64 278.652 1263.39 277.33C1262.16 275.986 1261.19 274.391 1260.48 272.545C1259.8 270.699 1259.46 268.671 1259.46 266.461C1259.46 263.886 1259.88 261.539 1260.72 259.42C1261.57 257.301 1262.74 255.478 1264.24 253.951C1265.77 252.424 1267.59 251.251 1269.71 250.431C1271.83 249.588 1274.18 249.166 1276.75 249.166C1279.42 249.166 1281.81 249.69 1283.93 250.738C1286.05 251.764 1287.85 253.256 1289.33 255.216C1290.84 257.175 1291.98 259.579 1292.75 262.428C1293.55 265.276 1293.95 268.512 1293.95 272.135ZM1283.04 266.393C1283.04 265.139 1282.88 263.966 1282.56 262.872C1282.25 261.756 1281.8 260.799 1281.23 260.001C1280.66 259.203 1279.97 258.577 1279.15 258.121C1278.33 257.643 1277.43 257.403 1276.45 257.403C1275.51 257.403 1274.65 257.608 1273.85 258.019C1273.07 258.429 1272.4 258.998 1271.83 259.728C1271.26 260.434 1270.82 261.288 1270.5 262.291C1270.18 263.294 1270.02 264.376 1270.02 265.538C1270.02 266.814 1270.18 267.953 1270.5 268.956C1270.82 269.936 1271.26 270.768 1271.83 271.451C1272.42 272.135 1273.13 272.659 1273.95 273.023C1274.77 273.365 1275.68 273.536 1276.69 273.536C1277.64 273.536 1278.51 273.354 1279.28 272.989C1280.06 272.602 1280.72 272.089 1281.27 271.451C1281.84 270.813 1282.27 270.061 1282.56 269.195C1282.88 268.329 1283.04 267.395 1283.04 266.393ZM1299.79 285.807C1299.79 284.439 1299.98 283.129 1300.37 281.876C1300.78 280.6 1301.39 279.426 1302.18 278.355C1302.98 277.262 1303.97 276.293 1305.16 275.45C1306.36 274.584 1307.78 273.878 1309.4 273.331C1306.91 272.101 1304.99 270.528 1303.62 268.614C1302.25 266.677 1301.57 264.535 1301.57 262.188C1301.57 260.32 1301.96 258.588 1302.73 256.993C1303.53 255.398 1304.62 254.02 1306.01 252.857C1307.4 251.695 1309.05 250.795 1310.97 250.157C1312.9 249.496 1315.01 249.166 1317.29 249.166C1319.62 249.166 1321.75 249.496 1323.68 250.157C1325.62 250.795 1327.28 251.695 1328.67 252.857C1330.09 253.997 1331.18 255.353 1331.95 256.925C1332.73 258.497 1333.12 260.206 1333.12 262.052C1333.12 264.376 1332.39 266.495 1330.93 268.409C1329.47 270.3 1327.45 271.861 1324.88 273.092C1326.47 273.639 1327.88 274.345 1329.08 275.211C1330.29 276.054 1331.3 277.022 1332.12 278.116C1332.95 279.21 1333.56 280.406 1333.97 281.705C1334.38 282.981 1334.59 284.314 1334.59 285.704C1334.59 287.8 1334.16 289.715 1333.32 291.446C1332.48 293.155 1331.28 294.636 1329.73 295.89C1328.21 297.12 1326.37 298.077 1324.23 298.761C1322.11 299.444 1319.76 299.786 1317.19 299.786C1314.66 299.786 1312.32 299.456 1310.18 298.795C1308.06 298.111 1306.23 297.154 1304.68 295.924C1303.15 294.693 1301.96 293.224 1301.09 291.515C1300.22 289.783 1299.79 287.88 1299.79 285.807ZM1310.01 284.884C1310.01 286 1310.18 287.003 1310.52 287.892C1310.87 288.78 1311.36 289.532 1311.99 290.147C1312.63 290.763 1313.38 291.241 1314.25 291.583C1315.14 291.902 1316.13 292.062 1317.22 292.062C1318.27 292.062 1319.23 291.891 1320.09 291.549C1320.98 291.207 1321.75 290.729 1322.38 290.113C1323.02 289.498 1323.52 288.746 1323.89 287.857C1324.25 286.969 1324.43 285.978 1324.43 284.884C1324.43 283.904 1324.26 282.97 1323.92 282.081C1323.58 281.192 1323.09 280.429 1322.45 279.791C1321.81 279.13 1321.05 278.606 1320.16 278.219C1319.3 277.831 1318.32 277.638 1317.22 277.638C1316.2 277.638 1315.24 277.82 1314.35 278.185C1313.46 278.526 1312.7 279.028 1312.06 279.688C1311.42 280.326 1310.92 281.09 1310.56 281.979C1310.19 282.867 1310.01 283.836 1310.01 284.884ZM1311.51 263.18C1311.51 264.046 1311.66 264.866 1311.96 265.641C1312.28 266.393 1312.7 267.053 1313.22 267.623C1313.75 268.17 1314.36 268.603 1315.07 268.922C1315.8 269.241 1316.56 269.4 1317.36 269.4C1318.18 269.4 1318.94 269.241 1319.65 268.922C1320.36 268.603 1320.97 268.159 1321.5 267.589C1322.04 267.019 1322.46 266.358 1322.76 265.606C1323.08 264.854 1323.24 264.046 1323.24 263.18C1323.24 262.291 1323.09 261.471 1322.79 260.719C1322.5 259.944 1322.08 259.283 1321.53 258.736C1321.01 258.167 1320.38 257.722 1319.65 257.403C1318.94 257.084 1318.18 256.925 1317.36 256.925C1316.49 256.925 1315.7 257.096 1314.97 257.438C1314.26 257.757 1313.65 258.201 1313.12 258.771C1312.62 259.317 1312.22 259.978 1311.92 260.753C1311.65 261.505 1311.51 262.314 1311.51 263.18Z" fill="white"/>
<a href="https://github.com/Azizbek98">
<rect fill="black" fill-opacity="0" y="-1.05273" width="998.32" height="93.1055"/>
</a>
<g clip-path="url(#clip0)">
<path fill-rule="evenodd" clip-rule="evenodd" d="M247.878 51C206.977 51.0017 167.752 67.2508 138.832 96.1729L130.742 104.245C125.208 109.779 119.885 115.543 114.809 121.5H58.3386C53.0719 121.502 47.8935 122.852 43.2963 125.422C38.6994 127.992 34.837 131.696 32.0773 136.182L1.93857 185.073C0.880612 186.792 0.230137 188.73 0.0370095 190.738C-0.156118 192.747 0.11323 194.773 0.824408 196.662C1.53559 198.551 2.66971 200.251 4.13987 201.633C5.61 203.016 7.37714 204.043 9.30582 204.637L63.9786 221.451C64.6307 222.35 65.3709 223.214 66.1641 224.007L108.975 266.801C109.786 267.611 110.632 268.352 111.531 269.004L128.345 323.676C128.939 325.605 129.966 327.372 131.349 328.842C132.731 330.312 134.432 331.447 136.32 332.158C138.209 332.87 140.235 333.137 142.244 332.945C144.253 332.751 146.19 332.101 147.909 331.044L196.801 300.958C201.286 298.198 204.991 294.336 207.561 289.739C210.131 285.141 211.481 279.963 211.482 274.697V218.173C217.44 213.097 223.203 207.774 228.737 202.24L236.809 194.15C265.734 165.237 281.989 126.019 282 85.122V81.8438C282 73.6635 278.75 65.8183 272.965 60.0339C267.181 54.2496 259.336 51 251.156 51H247.878ZM185.062 238.266C183.512 239.323 181.943 240.345 180.374 241.35L138.955 268.158L148.614 299.583L182.965 278.433C183.607 278.038 184.135 277.487 184.502 276.829C184.87 276.172 185.062 275.431 185.062 274.679V238.266ZM64.8246 194.045L91.6498 152.626C92.6721 151.039 93.7119 149.488 94.7518 147.938H58.3209C57.5682 147.937 56.8278 148.13 56.1707 148.497C55.5135 148.864 54.9613 149.394 54.5668 150.035L33.4168 184.404L64.8246 194.045ZM157.532 114.855C181.49 90.9014 213.982 77.4424 247.86 77.4375H251.139C252.307 77.4375 253.428 77.9017 254.255 78.728C255.081 79.5544 255.545 80.6752 255.545 81.8438V85.122C255.547 101.903 252.244 118.521 245.823 134.025C239.404 149.53 229.992 163.618 218.127 175.485L210.037 183.558C196.642 196.953 181.89 208.885 165.992 219.16L125.155 245.598L87.3846 207.827L113.822 166.99C124.104 151.09 136.038 136.32 149.425 122.928L157.497 114.855H157.532ZM211.5 139.125C211.5 143.8 209.642 148.282 206.338 151.588C203.033 154.893 198.549 156.75 193.875 156.75C189.201 156.75 184.717 154.893 181.412 151.588C178.106 148.282 176.25 143.8 176.25 139.125C176.25 134.45 178.106 129.968 181.412 126.662C184.717 123.357 189.201 121.5 193.875 121.5C198.549 121.5 203.033 123.357 206.338 126.662C209.642 129.968 211.5 134.45 211.5 139.125ZM62.7448 307.62C65.3422 305.2 67.4257 302.281 68.8706 299.038C70.3156 295.795 71.0926 292.295 71.1551 288.744C71.2179 285.194 70.5649 281.669 69.2352 278.377C67.9054 275.084 65.9263 272.095 63.416 269.583C60.9055 267.074 57.915 265.094 54.6232 263.765C51.3312 262.435 47.8052 261.783 44.2555 261.844C40.7056 261.908 37.2048 262.685 33.9618 264.129C30.719 265.574 27.8001 267.657 25.3798 270.255C12.4431 283.121 6.92645 311.356 5.11107 323.183C5.00374 323.821 5.05039 324.475 5.24714 325.09C5.44389 325.705 5.78504 326.265 6.24211 326.722C6.69919 327.18 7.25894 327.52 7.87467 327.718C8.49042 327.913 9.14427 327.961 9.7817 327.854C21.6081 326.038 49.8433 320.522 62.7448 307.62Z" fill="white"/>
</g>
<path d="M478.16 211H443.785L433.824 179.848H384.02L374.156 211H339.977L390.953 70.9609H428.355L478.16 211ZM426.598 155.629L411.559 108.559C410.452 105.043 409.671 100.844 409.215 95.9609H408.434C408.108 100.062 407.294 104.132 405.992 108.168L390.758 155.629H426.598ZM571.812 211H482.066V198.207L532.262 133.754H487.047V111H571.422V126.234L523.863 188.246H571.812V211ZM604.137 95.1797C598.928 95.1797 594.664 93.6497 591.344 90.5898C588.023 87.4648 586.363 83.6562 586.363 79.1641C586.363 74.5417 588.023 70.7656 591.344 67.8359C594.664 64.9062 598.928 63.4414 604.137 63.4414C609.41 63.4414 613.674 64.9062 616.93 67.8359C620.25 70.7656 621.91 74.5417 621.91 79.1641C621.91 83.8516 620.25 87.6927 616.93 90.6875C613.674 93.6823 609.41 95.1797 604.137 95.1797ZM619.371 211H588.512V111H619.371V211ZM724.547 211H634.801V198.207L684.996 133.754H639.781V111H724.156V126.234L676.598 188.246H724.547V211ZM772.496 199.379H772.105V211H741.246V62.9531H772.105V126.039H772.496C780.113 114.385 790.953 108.559 805.016 108.559C817.906 108.559 827.835 112.986 834.801 121.84C841.767 130.694 845.25 142.803 845.25 158.168C845.25 174.835 841.181 188.214 833.043 198.305C824.905 208.396 814.033 213.441 800.426 213.441C788.121 213.441 778.811 208.754 772.496 199.379ZM771.617 157.191V167.445C771.617 173.891 773.473 179.229 777.184 183.461C780.895 187.693 785.647 189.809 791.441 189.809C798.473 189.809 803.909 187.107 807.75 181.703C811.656 176.234 813.609 168.52 813.609 158.559C813.609 150.29 811.819 143.845 808.238 139.223C804.723 134.535 799.677 132.191 793.102 132.191C786.917 132.191 781.773 134.503 777.672 139.125C773.635 143.747 771.617 149.77 771.617 157.191ZM955.113 169.789H889.879C890.921 184.307 900.068 191.566 917.32 191.566C928.323 191.566 937.991 188.962 946.324 183.754V206.02C937.079 210.967 925.068 213.441 910.289 213.441C894.143 213.441 881.611 208.982 872.691 200.062C863.772 191.078 859.312 178.578 859.312 162.562C859.312 145.961 864.13 132.81 873.766 123.109C883.401 113.409 895.25 108.559 909.312 108.559C923.896 108.559 935.159 112.888 943.102 121.547C951.109 130.206 955.113 141.957 955.113 156.801V169.789ZM926.5 150.844C926.5 136.521 920.706 129.359 909.117 129.359C904.169 129.359 899.872 131.41 896.227 135.512C892.646 139.613 890.465 144.724 889.684 150.844H926.5ZM1073.67 211H1036.66L1004.72 161.391H1004.33V211H973.473V62.9531H1004.33V157.191H1004.72L1034.51 111H1071.13L1035.29 157.973L1073.67 211ZM1178.55 134.242C1178.55 146.677 1177.18 157.81 1174.45 167.641C1171.71 177.406 1167.71 185.674 1162.44 192.445C1157.23 199.216 1150.85 204.424 1143.3 208.07C1135.74 211.651 1127.18 213.441 1117.61 213.441C1106.15 213.441 1096.29 211.618 1088.02 207.973V182.582C1095.38 187.4 1104.23 189.809 1114.59 189.809C1125.2 189.809 1133.5 186.195 1139.49 178.969C1145.48 171.742 1148.51 161.293 1148.57 147.621L1147.98 147.426C1141.8 156.605 1132.39 161.195 1119.76 161.195C1114.03 161.195 1108.73 160.121 1103.84 157.973C1099.03 155.824 1094.83 152.862 1091.25 149.086C1087.73 145.245 1084.96 140.688 1082.95 135.414C1080.99 130.141 1080.02 124.346 1080.02 118.031C1080.02 110.674 1081.22 103.969 1083.63 97.9141C1086.04 91.8594 1089.39 86.651 1093.69 82.2891C1098.05 77.9271 1103.26 74.5742 1109.31 72.2305C1115.37 69.8216 1122.07 68.6172 1129.43 68.6172C1137.05 68.6172 1143.88 70.1146 1149.94 73.1094C1155.99 76.0391 1161.14 80.3034 1165.37 85.9023C1169.66 91.5013 1172.92 98.3698 1175.13 106.508C1177.41 114.646 1178.55 123.891 1178.55 134.242ZM1147.4 117.836C1147.4 114.255 1146.94 110.902 1146.03 107.777C1145.12 104.587 1143.85 101.853 1142.22 99.5742C1140.6 97.2956 1138.61 95.5052 1136.27 94.2031C1133.92 92.8359 1131.35 92.1523 1128.55 92.1523C1125.88 92.1523 1123.41 92.7383 1121.13 93.9102C1118.92 95.082 1116.99 96.7096 1115.37 98.793C1113.74 100.811 1112.47 103.253 1111.56 106.117C1110.65 108.982 1110.19 112.074 1110.19 115.395C1110.19 119.04 1110.65 122.296 1111.56 125.16C1112.47 127.96 1113.74 130.336 1115.37 132.289C1117.06 134.242 1119.08 135.74 1121.42 136.781C1123.77 137.758 1126.37 138.246 1129.23 138.246C1131.97 138.246 1134.44 137.725 1136.66 136.684C1138.87 135.577 1140.76 134.112 1142.32 132.289C1143.95 130.466 1145.18 128.318 1146.03 125.844C1146.94 123.37 1147.4 120.701 1147.4 117.836ZM1195.25 173.305C1195.25 169.398 1195.8 165.655 1196.91 162.074C1198.08 158.428 1199.81 155.076 1202.09 152.016C1204.36 148.891 1207.2 146.124 1210.58 143.715C1214.03 141.241 1218.07 139.223 1222.69 137.66C1215.6 134.145 1210.09 129.652 1206.19 124.184C1202.28 118.65 1200.33 112.53 1200.33 105.824C1200.33 100.486 1201.43 95.5378 1203.65 90.9805C1205.93 86.4232 1209.05 82.4844 1213.02 79.1641C1216.99 75.8438 1221.71 73.2721 1227.18 71.4492C1232.72 69.5612 1238.74 68.6172 1245.25 68.6172C1251.89 68.6172 1257.98 69.5612 1263.51 71.4492C1269.05 73.2721 1273.8 75.8438 1277.77 79.1641C1281.81 82.4193 1284.93 86.293 1287.14 90.7852C1289.36 95.2773 1290.46 100.16 1290.46 105.434C1290.46 112.074 1288.38 118.129 1284.21 123.598C1280.05 129.001 1274.29 133.461 1266.93 136.977C1271.49 138.539 1275.49 140.557 1278.94 143.031C1282.39 145.44 1285.29 148.207 1287.63 151.332C1289.98 154.457 1291.73 157.875 1292.91 161.586C1294.08 165.232 1294.66 169.04 1294.66 173.012C1294.66 179.001 1293.46 184.47 1291.05 189.418C1288.64 194.301 1285.22 198.533 1280.8 202.113C1276.43 205.629 1271.19 208.363 1265.07 210.316C1259.02 212.27 1252.31 213.246 1244.96 213.246C1237.73 213.246 1231.06 212.302 1224.94 210.414C1218.88 208.461 1213.64 205.727 1209.21 202.211C1204.85 198.695 1201.43 194.496 1198.96 189.613C1196.49 184.665 1195.25 179.229 1195.25 173.305ZM1224.45 170.668C1224.45 173.858 1224.94 176.723 1225.91 179.262C1226.89 181.801 1228.29 183.949 1230.11 185.707C1231.94 187.465 1234.08 188.832 1236.56 189.809C1239.1 190.72 1241.93 191.176 1245.05 191.176C1248.05 191.176 1250.78 190.688 1253.26 189.711C1255.8 188.734 1257.98 187.367 1259.8 185.609C1261.62 183.852 1263.06 181.703 1264.1 179.164C1265.14 176.625 1265.66 173.793 1265.66 170.668C1265.66 167.868 1265.17 165.199 1264.2 162.66C1263.22 160.121 1261.82 157.94 1260 156.117C1258.17 154.229 1255.99 152.732 1253.45 151.625C1250.98 150.518 1248.18 149.965 1245.05 149.965C1242.12 149.965 1239.39 150.486 1236.85 151.527C1234.31 152.504 1232.13 153.936 1230.31 155.824C1228.49 157.647 1227.05 159.828 1226.01 162.367C1224.97 164.906 1224.45 167.673 1224.45 170.668ZM1228.75 108.656C1228.75 111.13 1229.17 113.474 1230.02 115.688C1230.93 117.836 1232.13 119.724 1233.63 121.352C1235.13 122.914 1236.88 124.151 1238.9 125.062C1240.99 125.974 1243.17 126.43 1245.45 126.43C1247.79 126.43 1249.97 125.974 1251.99 125.062C1254.01 124.151 1255.76 122.882 1257.26 121.254C1258.82 119.626 1260.03 117.738 1260.88 115.59C1261.79 113.441 1262.24 111.13 1262.24 108.656C1262.24 106.117 1261.82 103.773 1260.97 101.625C1260.13 99.4115 1258.92 97.5234 1257.36 95.9609C1255.86 94.3333 1254.07 93.0638 1251.99 92.1523C1249.97 91.2409 1247.79 90.7852 1245.45 90.7852C1242.97 90.7852 1240.69 91.2734 1238.61 92.25C1236.59 93.1615 1234.83 94.431 1233.34 96.0586C1231.9 97.6211 1230.76 99.5091 1229.92 101.723C1229.14 103.871 1228.75 106.182 1228.75 108.656Z" fill="white"/>
<defs>
<clipPath id="clip0">
<rect width="282" height="282" fill="white" transform="translate(0 51)"/>
</clipPath>
</defs>
</svg>
