<svg width="876" height="325" viewBox="0 0 876 325" fill="none" xmlns="http://www.w3.org/2000/svg">
<g clip-path="url(#clip0)">
<path d="M452.262 107.647L493.939 104.956C494.889 111.763 496.632 116.829 499.485 120.47C504.08 126.169 510.419 129.018 518.818 129.018C524.998 129.018 529.91 127.594 533.238 124.586C536.407 122.211 538.309 118.412 538.309 114.454C538.309 110.655 536.566 107.014 533.555 104.64C530.386 101.79 522.938 98.9406 511.211 96.4077C492.037 92.1335 478.25 86.4345 470.169 79.1525C462.087 72.3453 457.491 62.3721 457.808 51.7657C457.808 44.4837 460.027 37.2016 464.147 31.1861C468.901 24.379 475.398 18.9966 483.163 15.9888C491.562 12.3478 503.288 10.4481 518.025 10.4481C536.09 10.4481 549.877 13.7725 559.385 20.5796C568.893 27.2284 574.598 37.9932 576.341 52.7155L535.14 55.0901C534.03 48.7579 531.812 44.1671 528.167 41.1593C524.522 38.1515 519.769 36.7267 513.588 36.7267C508.517 36.7267 504.714 37.8349 502.179 39.8928C499.802 41.7925 498.217 44.642 498.376 47.8081C498.376 50.1827 499.643 52.3989 501.545 53.8237C503.605 55.7233 508.517 57.4647 516.282 59.0477C535.457 63.1637 549.085 67.2796 557.483 71.5538C565.882 75.828 571.904 81.0521 575.549 87.226C579.352 93.5582 581.253 100.84 581.095 108.281C581.095 117.146 578.559 126.011 573.488 133.451C568.259 141.208 560.97 147.224 552.413 150.865C543.38 154.822 531.97 156.88 518.342 156.88C494.255 156.88 477.617 152.289 468.267 142.949C458.918 133.609 453.371 121.895 452.262 107.647ZM9.98336 154.506V12.981H83.0362C96.5058 12.981 106.965 14.0891 114.096 16.4637C121.068 18.68 127.248 23.2708 131.368 29.4447C135.964 36.2518 138.182 44.1671 138.024 52.3989C138.499 66.3297 131.368 79.6274 119.166 86.5928C114.412 89.284 109.183 91.1836 103.795 92.1335C107.757 93.2416 111.719 95.1412 115.205 97.3575C117.899 99.5738 120.117 102.107 122.177 104.798C124.554 107.489 126.614 110.497 128.357 113.663L149.592 154.664H99.8336L76.3806 111.13C73.3698 105.589 70.8343 101.948 68.4573 100.207C65.288 97.9907 61.4848 96.8826 57.6816 96.8826H53.8784V154.347H9.98336V154.506ZM53.8784 70.2874H72.419C76.3806 69.9708 80.1838 69.3375 83.987 68.3877C86.8394 67.9128 89.3748 66.3298 91.118 63.9552C95.3965 58.2562 94.7627 50.1827 89.5333 45.2752C86.6809 42.9006 81.1346 41.6342 73.2113 41.6342H53.8784V70.2874ZM0 275.767L41.6766 273.076C42.6274 279.883 44.3705 284.949 47.2229 288.59C51.6599 294.289 58.157 297.297 66.5557 297.297C72.7359 297.297 77.6483 295.872 80.9761 292.864C84.1454 290.331 86.047 286.69 86.047 282.733C86.047 278.933 84.3039 275.292 81.2931 272.918C78.1237 270.068 70.6758 267.219 58.7909 264.686C39.6165 260.412 25.83 254.713 17.7482 247.431C9.66643 240.623 5.07091 230.65 5.38784 220.044C5.38784 212.762 7.60637 205.48 11.7265 199.464C16.4805 192.657 22.9776 187.275 30.7424 184.267C39.1411 180.626 50.8676 178.726 65.6049 178.726C83.6701 178.726 97.4566 182.051 106.965 188.858C116.473 195.665 122.019 206.271 123.762 220.994L82.5608 223.368C81.4515 217.036 79.233 212.445 75.5883 209.437C72.102 206.43 67.1896 205.005 61.0094 205.163C55.9385 205.163 52.1353 206.271 49.5999 208.488C47.0644 210.387 45.6382 213.237 45.7967 216.403C45.7967 218.777 47.0644 220.994 48.966 222.418C51.0261 224.318 55.9385 226.059 63.7033 227.642C82.8777 231.758 96.5058 235.874 104.904 240.149C113.303 244.423 119.325 249.647 122.97 255.821C126.773 262.153 128.674 269.435 128.674 276.717C128.674 285.582 125.98 294.289 121.068 301.729C115.839 309.486 108.549 315.502 99.992 319.143C90.9595 323.1 79.5499 325.158 65.9219 325.158C41.835 325.158 25.1961 320.567 15.8466 311.227C6.49711 301.729 1.26773 290.015 0 275.767H0Z" fill="white"/>
<path d="M210.76 264.686L249.109 276.242C247.048 285.899 242.77 295.08 236.907 303.154C231.519 310.278 224.388 315.818 216.306 319.459C208.066 323.1 197.607 325 184.93 325C169.559 325 156.881 322.784 147.215 318.351C137.39 313.919 128.991 306.003 121.86 294.764C114.729 283.524 111.243 269.118 111.243 251.547C111.243 228.117 117.423 210.071 129.942 197.565C142.461 185.058 160.051 178.726 182.87 178.726C200.776 178.726 214.721 182.367 225.022 189.491C235.164 196.773 242.77 207.854 247.841 222.735L209.175 231.283C208.224 227.959 206.798 224.635 204.897 221.785C202.52 218.461 199.509 215.928 195.864 214.028C192.219 212.129 188.099 211.337 183.979 211.337C173.996 211.337 166.389 215.295 161.16 223.368C157.198 229.226 155.138 238.566 155.138 251.23C155.138 266.902 157.515 277.667 162.269 283.524C167.023 289.381 173.679 292.231 182.394 292.231C190.793 292.231 197.132 289.856 201.41 285.265C205.689 280.358 208.858 273.551 210.76 264.686ZM300.293 181.101H344.03V230.65H391.886V181.101H435.94V322.625H391.886V265.319H344.03V322.625H300.293V181.101V181.101Z" fill="white"/>
<path d="M429.918 251.863C429.918 228.751 436.415 210.704 449.251 197.881C462.087 185.058 480.152 178.568 503.13 178.568C526.741 178.568 544.806 184.9 557.642 197.565C570.478 210.229 576.816 227.959 576.816 250.755C576.816 267.377 573.964 280.833 568.418 291.439C563.03 301.887 554.631 310.436 544.331 316.135C533.713 321.992 520.561 325 504.873 325C488.868 325 475.715 322.467 465.256 317.401C454.48 312.019 445.606 303.629 439.743 293.339C433.246 282.258 429.918 268.485 429.918 251.863ZM473.655 252.021C473.655 266.269 476.349 276.559 481.578 282.891C486.808 289.065 494.097 292.231 503.288 292.231C512.638 292.231 519.927 289.223 525.156 283.049C530.386 276.875 532.921 265.952 532.921 250.122C532.921 236.824 530.227 227.009 524.839 220.994C519.452 214.82 512.162 211.812 502.971 211.812C494.889 211.495 487.124 214.978 481.737 221.152C476.349 227.326 473.655 237.616 473.655 252.021V252.021ZM621.662 251.863C621.662 228.751 628.159 210.704 640.995 197.881C653.831 185.058 671.896 178.568 694.873 178.568C718.485 178.568 736.708 184.9 749.386 197.565C762.063 210.229 768.56 227.959 768.56 250.755C768.56 267.377 765.708 280.833 760.161 291.439C754.774 301.887 746.375 310.436 736.075 316.135C725.457 321.992 712.305 325 696.617 325C680.611 325 667.459 322.467 657 317.401C646.224 312.019 637.35 303.629 631.487 293.339C624.99 282.258 621.662 268.485 621.662 251.863V251.863ZM665.399 252.021C665.399 266.269 668.093 276.559 673.322 282.891C678.551 289.065 685.841 292.231 695.032 292.231C704.381 292.231 711.671 289.223 716.9 283.049C722.13 276.875 724.665 265.952 724.665 250.122C724.665 236.824 721.971 227.009 716.583 220.994C711.195 214.82 703.906 211.812 694.715 211.812C686.633 211.495 678.71 214.978 673.481 221.152C668.093 227.326 665.399 237.616 665.399 252.021V252.021Z" fill="white"/>
<path d="M763.965 181.101H807.701V287.798H876V322.625H763.806V181.101H763.965Z" fill="white"/>
<path d="M715.757 172.933C759.791 139.784 773.369 83.5914 746.085 47.4229C718.802 11.2544 660.988 8.80671 616.954 41.9558C572.921 75.1048 559.343 131.298 586.626 167.466C613.91 203.635 671.724 206.082 715.757 172.933Z" fill="white"/>
<path d="M745.286 48.0243C772.132 83.6126 758.901 139.202 715.155 172.135C671.409 205.068 614.271 202.453 587.425 166.865C560.579 131.276 573.811 75.6866 617.557 42.7541C661.302 9.82154 718.44 12.436 745.286 48.0243Z" fill="black" stroke="black" stroke-width="2"/>
<path d="M621.821 97.0409L637.667 85.9596L657.159 113.663C660.486 118.095 663.022 122.845 664.923 128.069C666.033 132.026 665.716 136.301 664.131 140.1C662.071 144.849 658.743 148.807 654.306 151.656C649.077 155.297 644.64 157.355 640.837 157.988C637.192 158.622 633.389 157.988 629.902 156.405C626.099 154.506 622.771 151.814 620.236 148.332L633.864 135.667C634.973 137.409 636.4 138.992 637.984 140.258C639.093 141.05 640.361 141.525 641.787 141.525C642.897 141.525 644.006 141.05 644.798 140.416C646.383 139.467 647.492 137.567 647.334 135.667C646.858 132.976 645.749 130.285 644.006 128.227L621.821 97.0409V97.0409ZM669.36 114.613L683.781 103.215C685.365 105.114 687.426 106.539 689.644 107.331C692.813 108.281 696.141 107.647 698.835 105.589C700.737 104.323 702.321 102.582 702.955 100.365C703.906 97.5158 702.321 94.3497 699.469 93.3999C698.994 93.2416 698.518 93.0833 698.043 93.0833C696.141 92.925 692.813 93.7165 687.901 95.7745C679.819 99.0989 673.481 100.365 668.727 99.8904C664.131 99.4155 659.852 97.0409 657.317 93.0833C655.415 90.3921 654.465 87.226 654.306 84.0599C654.306 80.4189 655.257 76.7779 657.317 73.7701C660.328 69.4959 663.973 65.8548 668.41 63.0054C675.065 58.4145 680.928 56.1982 685.999 56.1982C691.07 56.1982 695.824 58.5728 700.261 63.4803L685.999 74.7199C683.147 71.0789 677.759 70.2874 674.114 73.1369L673.639 73.6118C672.054 74.5616 670.945 75.9864 670.311 77.7277C669.836 78.9941 670.153 80.4189 670.945 81.527C671.579 82.3186 672.53 82.9518 673.639 82.9518C674.907 83.1101 677.125 82.4769 680.295 81.0521C688.218 77.7277 694.24 75.8281 698.36 75.1948C701.846 74.5616 705.491 74.8782 708.818 76.303C711.829 77.5694 714.365 79.7857 716.108 82.4769C718.326 85.643 719.594 89.4423 719.753 93.3999C719.911 97.5158 718.802 101.473 716.583 104.956C713.731 109.23 710.086 112.871 705.808 115.721C697.092 121.736 689.961 124.269 684.256 123.32C678.076 122.37 673.005 119.204 669.36 114.613V114.613Z" fill="white"/>
</g>
<defs>
<clipPath id="clip0">
<rect width="876" height="325" fill="white"/>
</clipPath>
</defs>
</svg>
